# xmcd
#
# Track frame offsets:
#	150
#	13120
#	32107
#	53513
#	71603
#	99438
#
# Disc length: 1467 seconds
#
# Revision: 1
# Processed by: cddbd v1.5.1PL0 Copyright (c) Steve Scherf et al.
# Submitted via: CDex 1.50Beta5
#
DISCID=4405b906
DTITLE=ヒズマリ3 - 月と木
DYEAR=1900
DGENRE=Rock
TTITLE0=濁った瞳の果て
TTITLE1=琥珀の扉
TTITLE2=帰り道
TTITLE3=Doll
TTITLE4=くちなしの花
TTITLE5=typeA
EXTD=
EXTT0=
EXTT1=
EXTT2=
EXTT3=
EXTT4=
EXTT5=
PLAYORDER=
